# xmcd
#
# Track frame offsets:
#	150
#	13577
#	26741
#	38875
#	53524
#	68085
#	82276
#	95935
#	109607
#	123760
#	137828
#	152244
#	164417
#	177783
#	191552
#	206878
#	221225
#	235014
#	248375
#	262591
#	275702
#	288379
#	301640
#	315751
#	329023
#
# Disc length: 4574 seconds
#
# Revision: 0
# Processed by: cddbd v1.5.1PL2 Copyright (c) Steve Scherf et al.
# Submitted via: EasyCDDAExtractor 9.0.0.1
#
DISCID=6011dc19
DTITLE=Various Artist - Applachian Stomp Down - Disc A
DYEAR=2006
DGENRE=Country
TTITLE0=Aiken Country String Band - Carolina Stompdown
TTITLE1=Aiken Country String Band - High Sheriff
TTITLE2=Ridgel's Fountain Citians - Free Little Bird
TTITLE3=Ridgel's Fountain Citians - The Nick Nack Song
TTITLE4=Ridgel's Fountain Citians - Baby Call Your Dog Off
TTITLE5=Grayson and Whitter - Nobody's Darling
TTITLE6=Grayson and Whitter - I'll Never Be Yours
TTITLE7=Grayson and Whitter - Handsome Molly
TTITLE8=Grayson and Whitter - Shout Lula
TTITLE9=Grayson and Whitter - You'll Never Miss your Mother Until She Is Gone
TTITLE10=Grayson and Whitter - Train No.45
TTITLE11=Grayson and Whitter - Handsome Molly
TTITLE12=Grayson and Whitter - He Is Coming To Us Dead
TTITLE13=Grayson and Whitter - Don't Go Out Tonight My Darling
TTITLE14=Grayson and Whitter - Rose Conley
TTITLE15=Grayson and Whitter - Ommie Wise
TTITLE16=Grayson and Whitter - Train 45
TTITLE17=Grayson and Whitter - Sally Gooden
TTITLE18=Grayson and Whitter - Mine Is For Mary (aka As My Mind Is To Marry)
TTITLE19=Grayson and Whitter - She's Mine All Mine
TTITLE20=Grayson and Whitter - Sweet Rose O'Grady
TTITLE21=Grayson and Whitter - Sweet Rose O'Grady (Alt. Take)
TTITLE22=Grayson and Whitter - Red Or Green
TTITLE23=Grayson and Whitter - Cluck Old Hen
TTITLE24=Grayson and Whitter - Old Jimmy Sutton
EXTD=
EXTT0=
EXTT1=
EXTT2=
EXTT3=
EXTT4=
EXTT5=
EXTT6=
EXTT7=
EXTT8=
EXTT9=
EXTT10=
EXTT11=
EXTT12=
EXTT13=
EXTT14=
EXTT15=
EXTT16=
EXTT17=
EXTT18=
EXTT19=
EXTT20=
EXTT21=
EXTT22=
EXTT23=
EXTT24=
PLAYORDER=
